<svg xmlns="http://www.w3.org/2000/svg" xmlns:xlink="http://www.w3.org/1999/xlink" viewBox="0 0 67.41 67.41" fill="#fff" fill-rule="evenodd" stroke="#000" stroke-linecap="round" stroke-linejoin="round"><use xlink:href="#A" x="1.205" y="1.205"/><symbol id="A" overflow="visible"><g stroke="none" fill-rule="nonzero"><path d="M0 32C0 14.272 14.272 0 32 0s32 14.272 32 32-14.272 32-32 32S0 49.728 0 32z" fill="#1a171b"/><path d="M45.99 11.84c-3.253.113-6.089 1.928-8.199 4.385-2.337 2.718-3.894 5.939-5.017 9.228-2.005-1.643-3.552-3.771-6.747-4.698-2.574-.793-5.373-.281-7.501 1.371-1.137.851-1.923 2.135-2.294 3.342-.964 3.139 1.012 5.932 1.913 6.934l1.966 2.106c.405.41 1.381 1.494.904 3.036-.516 1.679-2.542 2.771-4.619 2.127-.928-.282-2.26-.973-1.961-1.947.12-.398.41-.723.561-1.041.14-.296.207-.518.251-.65.381-1.239-.14-2.85-1.465-3.26-1.238-.381-2.506-.08-2.997 1.518-.554 1.812.308 5.098 4.951 6.506 5.441 1.672 10.04-1.292 10.693-5.156.41-2.419-.682-4.217-2.682-6.506l-1.631-1.802c-.964-.964-1.325-2.67-.304-3.961.863-1.091 2.091-1.556 4.103-1.012 2.94.795 4.245 2.836 6.433 4.482-.901 2.959-1.494 5.927-2.024 8.592l-.325 1.985c-1.561 8.192-2.754 12.691-5.855 15.271-.626.443-1.518 1.108-2.862 1.157-.706.024-.932-.463-.964-.675-.017-.494.4-.723.675-.944.414-.227 1.041-.602.997-1.8-.048-1.417-1.219-2.65-2.891-2.59-1.272.043-3.209 1.241-3.137 3.431.077 2.265 2.185 3.959 5.366 3.85 1.699-.058 5.494-.723 9.235-5.197 4.354-5.098 5.571-10.939 6.489-15.218l1.022-5.648 1.836.13c5.421.113 8.134-2.694 8.175-4.737.024-1.236-.812-2.453-1.985-2.426-.843.024-1.896.583-2.149 1.744-.248 1.14 1.725 2.169.183 3.166-1.096.708-3.06 1.21-5.826.802l.482-2.781c1.026-5.272 2.289-11.758 7.096-11.912.349-.017 1.631.017 1.687.863.01.282-.06.354-.393 1.002-.337.482-.465.935-.448 1.429.048 1.349 1.07 2.231 2.549 2.178 1.983-.065 2.554-1.993 2.52-2.988-.079-2.327-2.535-3.8-5.783-3.691z"/></g></symbol></svg>